<svg width="17" height="10" viewBox="0 0 17 10" fill="none" xmlns="http://www.w3.org/2000/svg">
<path d="M12.6423 1.69767C13.4743 2.52962 13.4344 2.5645 14.2664 3.39645C15.0984 4.2284 16.0001 4.25745 16.0001 5.04541C16.0001 5.83337 15.0884 5.85246 14.2614 6.68441C13.4344 7.51637 13.4195 7.5064 12.5925 8.33337" stroke="#060C1A" stroke-width="1.5" stroke-linecap="round" stroke-linejoin="round"/>
<path d="M15.9403 4.90591C14.4458 4.90591 14.4458 5.00555 12.9512 5.00555C11.4567 5.00555 11.4567 5.17493 9.96717 5.17493C8.47762 5.17493 8.47264 5.05038 6.97811 5.05038C5.48358 5.05038 5.48358 5.155 3.98906 5.155C2.49453 5.155 2.49453 4.95075 1 4.95075" stroke="#060C1A" stroke-width="1.5" stroke-linecap="round" stroke-linejoin="round"/>
</svg>
