<svg width="22" height="22" viewBox="0 0 22 22" fill="none" xmlns="http://www.w3.org/2000/svg">
<path d="M13.2161 10.947C13.2161 12.1486 12.1904 13.28 10.9836 13.28C9.77676 13.28 8.80127 12.1586 8.80127 10.947C8.80127 9.73544 9.77676 8.68408 10.9836 8.68408C12.1904 8.68408 13.2161 9.74545 13.2161 10.947Z" stroke="#B3B3B3" stroke-width="1.5" stroke-miterlimit="10"/>
<path d="M20.9899 10.947C20.9899 11.708 20.8894 12.449 20.7184 13.1599C20.5475 13.8708 20.2458 14.5717 19.9239 15.2326C19.6021 15.8934 19.1798 16.5042 18.7171 17.085C18.2545 17.6657 17.8925 18.3766 17.3092 18.8472C16.7259 19.3178 16.0723 19.7484 15.3985 20.0788C14.7247 20.4092 13.9403 20.4593 13.1961 20.6295C12.4519 20.7997 11.7479 21 10.9735 21C10.1992 21 9.46506 20.8198 8.75104 20.6596C8.03702 20.4994 7.33305 20.1789 6.66932 19.8585C6.00558 19.5381 5.25133 19.2978 4.66805 18.8272C4.08477 18.3566 3.65233 17.7158 3.18972 17.135C2.72712 16.5543 2.39525 15.9034 2.06338 15.2225C1.73152 14.5417 1.32925 13.9209 1.15829 13.1799C0.987325 12.439 1.00744 11.708 1.00744 10.947C1.00744 10.1861 0.957156 9.41506 1.11806 8.70414C1.27897 7.99322 1.73152 7.33237 2.05333 6.6615C2.37514 5.99064 2.65672 5.27972 3.11933 4.69897C3.58193 4.11822 4.20544 3.68767 4.79878 3.21706C5.39212 2.74646 5.90501 2.17572 6.58886 1.85531C7.27271 1.53489 7.98673 1.25453 8.72087 1.08431C9.455 0.914092 10.2092 1.05427 10.9836 1.05427C11.758 1.05427 12.5022 1.00421 13.2262 1.16441C13.9503 1.32462 14.6442 1.66506 15.318 1.98547C15.9918 2.30589 16.5851 2.75647 17.1684 3.21706C17.7517 3.67766 18.4657 4.03812 18.9384 4.61887C19.4111 5.19962 19.763 5.89051 20.0949 6.56138C20.4268 7.23224 20.638 7.96318 20.7989 8.69413C20.9598 9.42507 21 10.156 21 10.927L20.9899 10.947Z" stroke="#B3B3B3" stroke-width="1.5" stroke-miterlimit="10"/>
<path d="M18.2748 10.947C18.2748 11.7381 18.3351 12.5291 18.1038 13.25C17.8725 13.9709 17.5205 14.7319 17.068 15.3527C16.6154 15.9735 15.9919 16.5042 15.3684 16.9648C14.7449 17.4254 13.9806 17.6257 13.2364 17.866C12.4922 18.1063 11.7782 18.3266 10.9837 18.3266C10.1892 18.3266 9.44504 18.0963 8.73102 17.866C8.017 17.6357 7.19236 17.4655 6.56884 17.0149C5.94533 16.5643 5.42239 15.9435 4.95979 15.3227C4.49718 14.7019 4.22565 13.9709 3.9843 13.23C3.74294 12.489 3.58203 11.7581 3.58203 10.9671C3.58203 10.1761 3.72282 9.41507 3.95413 8.69414C4.18543 7.97321 4.45696 7.19221 4.9095 6.5714C5.36205 5.9506 6.00568 5.45997 6.62919 4.99938C7.2527 4.53878 7.90638 4.06818 8.65057 3.82787C9.39476 3.58756 10.1792 3.48743 10.9837 3.48743C11.7882 3.48743 12.5827 3.62761 13.2967 3.86792C14.0107 4.10823 14.6946 4.57883 15.3181 5.02942C15.9416 5.48 16.6054 5.9506 17.0579 6.5714C17.5104 7.19221 17.9127 7.90312 18.1541 8.64408C18.3954 9.38503 18.2748 10.166 18.2748 10.9671V10.947Z" stroke="#B3B3B3" stroke-width="1.5" stroke-miterlimit="10"/>
</svg>
