<svg width="21" height="21" viewBox="0 0 21 21" fill="none" xmlns="http://www.w3.org/2000/svg">
<path d="M12.0432 3.20834C10.9411 3.20834 10.9411 3.46816 9.82843 3.46816C8.71574 3.46816 8.72633 3.78211 7.61364 3.78211C6.50095 3.78211 6.50095 3.39238 5.39885 3.42486C4.07422 3.44651 3.85168 3.46816 2.92974 4.56157C2.46347 5.11369 2.16675 6.04471 2.16675 7.22472C2.16675 8.40473 2.94033 8.95685 3.40661 9.53061C4.33915 10.6673 4.04243 11.436 5.38826 11.4901C6.54334 11.5334 6.56453 11.1004 7.71961 11.1004C8.87469 11.1004 8.87469 11.2627 10.0298 11.2627C11.1849 11.2627 11.1849 11.5226 12.3399 11.5226C13.495 11.5226 13.495 10.7972 14.6607 10.7972C15.8264 10.7972 15.8158 11.1437 16.9709 11.187C18.2955 11.2411 18.5922 11.0246 19.5247 12.118C20.0016 12.6809 19.8533 13.7094 19.8533 14.8677C19.8533 16.0261 19.9804 17.0112 19.5142 17.5525C18.5922 18.6243 18.3379 18.7867 17.0344 18.83C15.9535 18.8733 15.9429 18.4836 14.8514 18.4836C13.7599 18.4836 13.7599 18.8192 12.679 18.8192C11.5981 18.8192 11.5875 18.6243 10.5066 18.6243" stroke="#B3B3B3" stroke-width="1.5" stroke-linecap="round" stroke-linejoin="round"/>
<path d="M16.7562 4.02959C16.3827 3.63398 15.7945 3.22958 15.253 3.04496C15.0289 2.96584 15.0476 2.77243 15.2717 2.70209C15.8132 2.51748 16.4574 2.14824 16.8308 1.75263C17.251 1.40097 17.4564 0.724037 17.6524 0.214138C17.7365 0.0031447 18.0913 0.0646843 18.1659 0.275677C18.362 0.785576 18.8382 1.32185 19.249 1.6735C19.6224 2.06912 20.2106 2.46473 20.7521 2.64935C20.9762 2.72847 20.9669 2.96584 20.7521 3.03617C20.2106 3.22079 19.4544 3.46694 19.0716 3.85376C18.6514 4.20542 18.3807 4.91752 18.1846 5.42742C18.1006 5.63841 17.7645 5.68237 17.6805 5.47138C17.4844 4.96148 17.167 4.37245 16.7562 4.0208V4.02959Z" fill="#B3B3B3"/>
<path d="M1.90593 19.2123C1.53774 18.821 0.773736 18.6645 0.249061 18.4819C0.028145 18.4037 0.028145 17.9255 0.249061 17.8472C0.782941 17.6646 1.54694 17.5255 1.91513 17.1343C2.32935 16.7865 2.51345 16.0735 2.70675 15.5779C2.78959 15.3693 3.15779 15.3954 3.24063 15.604C3.43393 16.1083 3.68246 16.7952 4.09668 17.143C4.46487 17.5342 5.21967 17.7081 5.75355 17.8907C5.97446 17.9689 5.94685 18.2993 5.72593 18.3776C5.19205 18.5602 4.47408 18.821 4.10588 19.2036C3.69167 19.5514 3.50757 20.2643 3.31427 20.7686C3.23143 20.9773 2.82641 20.9599 2.74357 20.7512C2.55027 20.2469 2.32015 19.5601 1.91513 19.2036L1.90593 19.2123Z" fill="#B3B3B3"/>
</svg>
