<svg width="24" height="24" viewBox="0 0 24 24" fill="none" xmlns="http://www.w3.org/2000/svg">
<path d="M20.8687 12.4429C20.8687 12.5945 21.0606 12.9629 20.9139 13.017C20.1236 13.2554 18.9946 13.4395 17.9446 13.9162C16.9511 14.3604 15.7544 14.642 15.0883 15.2812C14.3996 15.942 14.298 17.1987 13.8125 18.152C13.2932 19.1595 12.5255 20.0479 12.2771 20.8387C12.2319 20.9795 12.1529 20.9254 11.9949 20.9254C11.8368 20.9254 12.0513 20.9037 11.9949 20.7629C11.7352 19.9612 11.1594 18.9212 10.6401 17.892C10.1207 16.8629 9.4885 15.9204 8.76595 15.292C8.06598 14.6854 7.01602 14.3062 6.07896 13.8729C5.05158 13.407 3.94517 13.2445 3.17746 13.0062C3.03069 12.9629 2.97424 12.627 2.97424 12.4754C2.97424 12.3237 3.14359 12.3237 3.29036 12.2912C4.06936 12.0637 5.27738 11.9879 6.31605 11.522C7.27569 11.0887 8.06598 10.2112 8.74337 9.58288C9.43206 8.93288 9.90623 7.88205 10.3917 6.88538C10.8997 5.83455 11.6562 4.87038 11.9158 4.07955C11.961 3.93872 11.8255 3.80872 11.9836 3.80872C12.1416 3.80872 12.4352 3.81955 12.4803 3.96038C12.6948 4.69705 12.6723 5.80205 13.1238 6.75538C13.5416 7.65455 14.3319 8.35872 14.9641 8.97622C15.5512 9.55038 15.9576 10.1895 16.556 10.5579C17.1769 10.9479 17.8543 11.2945 18.5994 11.5762C19.243 11.8145 19.9994 11.9012 20.8123 12.1395C20.959 12.1829 21.0042 12.1937 21.0042 12.3454C20.9139 12.4104 20.8574 12.432 20.8574 12.4429H20.8687Z" stroke="#B3B3B3" stroke-width="1.5" stroke-miterlimit="10"/>
<path d="M20.0386 22.2316C19.6817 21.8451 18.941 21.6904 18.4324 21.5101C18.2182 21.4328 18.2182 20.9603 18.4324 20.883C18.9499 20.7026 19.6906 20.5652 20.0476 20.1787C20.4491 19.8351 20.6276 19.1307 20.815 18.6411C20.8953 18.435 21.2523 18.4607 21.3326 18.6669C21.52 19.1651 21.7609 19.8437 22.1625 20.1873C22.5195 20.5738 23.2512 20.7456 23.7688 20.926C23.983 21.0033 23.9562 21.3297 23.742 21.407C23.2244 21.5874 22.5284 21.8451 22.1714 22.223C21.7699 22.5666 21.5914 23.271 21.404 23.7692C21.3237 23.9753 20.931 23.9581 20.8507 23.752C20.6633 23.2538 20.4402 22.5752 20.0476 22.223L20.0386 22.2316Z" fill="#B3B3B3"/>
<path d="M1.69479 3.98202C1.33274 3.59118 0.762507 3.19165 0.237529 3.00926C0.0202974 2.93109 0.0383996 2.74002 0.255632 2.67053C0.780609 2.48814 1.40515 2.12336 1.7672 1.73252C2.17451 1.38511 2.37364 0.716338 2.56372 0.21259C2.64518 0.00414271 2.98914 0.0649399 3.06155 0.273387C3.25162 0.777135 3.71324 1.30694 4.1115 1.65435C4.47355 2.04519 5.04379 2.43603 5.56877 2.61842C5.786 2.69659 5.77695 2.93109 5.56877 3.00058C5.04379 3.18297 4.31063 3.42616 3.93952 3.80831C3.53221 4.15572 3.26973 4.85923 3.07965 5.36298C2.99819 5.57143 2.67234 5.61485 2.59088 5.40641C2.4008 4.90266 2.09305 4.32074 1.69479 3.97333V3.98202Z" fill="#B3B3B3"/>
</svg>
